# xmcd CD database file
#
# Track frame offsets:
#	150
#	15951
#	29560
#	47114
#	69486
#	94569
#	131686
#	149657
#	170222
#	188875
#	213140
#	244828
#	273644
#	317865
#	337358
#
# Disc length: 4681 seconds
#
# Revision: 1
# Processed by: cddbd v1.5.1PL0 Copyright (c) Steve Scherf et al.
# Submitted via: jetAudio 5
#
DISCID=eb12470f
DTITLE=天心月圆 - 密音
DYEAR=1900
DGENRE=
TTITLE0=01.无量寿佛心咒(藏密调)
TTITLE1=02.云钟
TTITLE2=03.太极
TTITLE3=04.在那遥远的地方
TTITLE4=05.琵琶行
TTITLE5=06.心经
TTITLE6=07.秋月夜
TTITLE7=08.悟
TTITLE8=09.远呗
TTITLE9=10.暮鼓晨钟
TTITLE10=11.红墙碧瓦
TTITLE11=12.悲情城市
TTITLE12=13.法会
TTITLE13=14.空
TTITLE14=15.金刚手菩萨心咒
EXTD=
EXTT0=
EXTT1=
EXTT2=
EXTT3=
EXTT4=
EXTT5=
EXTT6=
EXTT7=
EXTT8=
EXTT9=
EXTT10=
EXTT11=
EXTT12=
EXTT13=
EXTT14=
PLAYORDER=
